<svg width="264" height="138" viewBox="0 0 264 138" fill="none" xmlns="http://www.w3.org/2000/svg">
<g clip-path="url(#clip0_3_2)">
<path d="M53.8468 66.5294C48.9881 66.5294 45.0481 62.5894 45.0481 57.732C45.0481 52.8694 48.9881 48.9267 53.8468 48.9267C58.7081 48.9267 62.6468 52.8694 62.6468 57.732C62.6468 62.5894 58.7081 66.5294 53.8468 66.5294Z" fill="white"/>
<path d="M75.3454 68.3907C80.8814 57.9187 85.1881 46.944 87.8161 37.696C86.8241 37.5707 85.7974 37.4707 84.7347 37.3827C82.2347 46.0427 78.1388 56.5733 72.6468 66.964C71.6308 68.8827 70.5841 70.764 69.5161 72.6067C71.0041 72.1214 72.4561 71.612 73.8921 71.0907C74.3801 70.196 74.8681 69.2973 75.3454 68.3907Z" fill="white"/>
<path d="M36.5041 47.8574C37.1574 46.6174 37.8241 45.4 38.5014 44.1974C37.0494 44.6467 35.6388 45.104 34.2614 45.5787C34.1068 45.8627 33.9534 46.1414 33.8054 46.428C27.6628 58.0414 23.2561 69.3854 20.7094 79.392C21.7094 79.476 22.7401 79.5427 23.8054 79.5894C26.2268 70.2494 30.3921 59.4187 36.5041 47.8574Z" fill="white"/>
<path d="M30.5628 62.3934C30.1108 63.472 29.6628 64.5481 29.2441 65.6041C33.6228 69.5307 39.0894 73.2027 45.3734 76.2667C51.8081 79.408 58.4361 81.5267 64.6601 82.5227C65.2934 81.5654 65.9308 80.588 66.5508 79.6C60.2521 78.7774 53.4121 76.6547 46.7668 73.4147C40.4201 70.3174 34.8828 66.4667 30.5628 62.3934Z" fill="white"/>
<path d="M86.1494 55.972C81.1187 49.3173 73.1734 43.1307 63.7774 38.5414C54.6427 34.0933 45.1027 31.6387 36.9067 31.6387C27.844 31.6387 21.412 34.5893 18.7973 39.956C15.56 46.5893 18.9533 55.336 26.876 63.352C27.316 62.2533 27.7586 61.1587 28.232 60.052C22.0133 53.3533 19.2134 46.352 21.652 41.3493C23.6787 37.196 29.24 34.812 36.9067 34.812C44.628 34.812 53.6787 37.1507 62.3827 41.3987C71.3387 45.7693 78.8787 51.6267 83.6147 57.8853C88.1147 63.8413 89.496 69.3773 87.4986 73.4653C85.472 77.6187 79.9147 80.0013 72.2413 80.0013C71.504 80.0013 70.74 79.96 69.98 79.9187C69.3467 80.9467 68.7146 81.9587 68.068 82.956C69.4906 83.084 70.8894 83.18 72.2413 83.18C81.3054 83.18 87.736 80.224 90.3494 74.8627C92.9014 69.6387 91.4107 62.932 86.1494 55.972Z" fill="white"/>
<path d="M67.0708 76.6987C54.3934 97.2374 39.1934 111.76 29.6228 111.76C28.3708 111.76 27.2321 111.493 26.2508 110.975C21.0321 108.212 19.6708 97.6414 23.0374 82.7347C21.9801 82.684 20.9548 82.6094 19.9588 82.5174C16.5014 98.152 17.9201 110.024 24.8241 113.679C26.2534 114.429 27.8681 114.812 29.6228 114.812C41.0108 114.812 57.6828 98.88 71.5028 75.2867C70.0508 75.7787 68.5721 76.2494 67.0708 76.6987Z" fill="white"/>
<path d="M58.5947 74.7574C56.1161 75.3307 53.6467 75.8334 51.196 76.2721C53.168 77.0614 55.1414 77.7547 57.0947 78.3361C57.8374 78.1774 58.5708 78.0227 59.3108 77.8507C69.7654 75.436 79.5161 72.0414 87.6441 68.056C87.4721 67.06 87.1721 66.0241 86.7561 64.9601C78.7587 68.9427 69.0427 72.34 58.5947 74.7574Z" fill="white"/>
<path d="M20.3027 47.3653C20.4267 48.38 20.672 49.436 21.0507 50.5133C28.7814 46.5 38.7654 42.784 50.5547 40.0546C52.0054 39.7213 53.4481 39.4146 54.8894 39.1226C52.8467 38.3746 50.8081 37.732 48.7974 37.208C37.9067 39.8107 28.1627 43.3573 20.3027 47.3653Z" fill="white"/>
<path d="M45.3454 77.188C39.8707 77.9294 34.5534 78.3254 29.6027 78.3254C14.6801 78.3254 4.6081 74.8627 3.3161 69.2761C2.2161 64.5334 7.6827 58.0707 18.188 52.0654C17.8054 51.0201 17.5081 49.9814 17.3134 48.9641C5.41743 55.6294 -1.3226 63.3254 0.217399 69.9934C1.9174 77.3121 12.6241 81.5094 29.6027 81.5094C36.2147 81.5094 43.4361 80.8334 50.8468 79.5534C49.0068 78.848 47.1707 78.0587 45.3454 77.188Z" fill="white"/>
<path d="M108.933 44.8214C107.24 37.504 96.5294 33.3054 79.5508 33.3054C71.9961 33.3054 63.6388 34.1894 55.1174 35.8441C56.9894 36.5041 58.8627 37.2467 60.7294 38.0774C67.2947 37.0334 73.6801 36.484 79.5508 36.484C94.4721 36.484 104.547 39.9534 105.837 45.5387C106.832 49.8201 102.573 55.3774 94.1547 60.7867C92.7227 61.708 91.1854 62.608 89.5734 63.484C90.0041 64.5294 90.3374 65.5534 90.5708 66.5574C92.4441 65.5587 94.2201 64.524 95.8748 63.4614C105.625 57.1907 110.267 50.5707 108.933 44.8214Z" fill="white"/>
<path fill-rule="evenodd" clip-rule="evenodd" d="M62.6468 57.696C62.6468 62.5547 58.7081 66.4933 53.8468 66.4933C48.9881 66.4933 45.0481 62.5547 45.0481 57.696C45.0481 52.8334 48.9881 48.892 53.8468 48.892C58.7081 48.892 62.6468 52.8334 62.6468 57.696Z" fill="white"/>
<path d="M40.8055 40.2147C41.9335 38.3227 43.0841 36.484 44.2534 34.6934C43.1081 34.5054 41.9774 34.3547 40.8681 34.2507C39.3854 36.584 37.9281 38.9987 36.5041 41.5054C37.9094 41.0574 39.3455 40.6293 40.8055 40.2147Z" fill="white"/>
<path d="M46.1855 31.8027C57.9188 14.6627 70.9747 3.05332 79.5294 3.05332C80.7814 3.05332 81.9174 3.31467 82.9001 3.836C88.4494 6.77333 89.6388 18.56 85.4068 34.996C86.4614 35.0853 87.4855 35.196 88.4695 35.3267C92.8081 18.2053 91.6721 5.01867 84.3321 1.136C82.8974 0.382668 81.2827 0 79.5294 0C69.5254 0 55.4508 12.2933 42.8108 31.2587C43.9228 31.404 45.0481 31.5813 46.1855 31.8027Z" fill="white"/>
<path d="M114.728 137.904V103.156L98.3321 123.808L81.8641 103.156V137.904H74.3294V89.0627H78.7254L98.3321 113.831L117.937 89.0627H122.261V137.904H114.728Z" fill="white"/>
<path d="M155.448 109.715V116.832H134.775V130.785H158.056V137.904H127.241V89.0627H158.056V96.1787H134.775V109.715H155.448Z" fill="white"/>
<path d="M263.737 96.5974V89.0627H249.943V96.5974H253.072V130.368H249.943V137.904H253.072H260.608H263.737V130.368H260.608V96.5974H263.737Z" fill="white"/>
<path d="M180.175 89.0627H164.408V137.904H171.943V96.1787H180.664C187.991 96.1787 194.548 99.6694 194.548 107.413C194.548 113.828 189.773 118.339 184.928 118.299C184.855 118.3 179.233 118.975 175.435 114.312V122.057C178.871 125.601 184.704 125.405 184.743 125.4C194.076 125.375 201.667 116.808 201.667 107.413C201.667 96.4587 193.224 89.0627 180.175 89.0627Z" fill="white"/>
<path d="M226.408 100.931C223.425 100.931 220.292 101.723 217.721 103.5V111.025C219.617 109.216 222.188 108.284 225.259 108.284C231.463 108.284 235.447 111.656 235.447 119.776V137.904H243.107V119.393C243.107 108.056 237.132 100.931 226.408 100.931Z" fill="white"/>
<path d="M206.491 137.904H214.149V88.0134H206.491V137.904Z" fill="white"/>
</g>
<defs>
<clipPath id="clip0_3_2">
<rect width="263.737" height="137.904" fill="white"/>
</clipPath>
</defs>
</svg>
